<svg xmlns="http://www.w3.org/2000/svg" version="1.1" xmlns:xlink="http://www.w3.org/1999/xlink" xmlns:svgjs="http://svgjs.dev/svgjs" width="1000" height="1000" viewBox="0 0 1000 1000"><rect width="1000" height="1000" fill="#ffffff"></rect><g transform="matrix(0.7,0,0,0.7,149.57575757575756,282.1265587044535)"><svg viewBox="0 0 396 247" data-background-color="#ffffff" preserveAspectRatio="xMidYMid meet" height="623" width="1000" xmlns="http://www.w3.org/2000/svg" xmlns:xlink="http://www.w3.org/1999/xlink"><g id="tight-bounds" transform="matrix(1,0,0,1,0.2400000000000091,-0.09999999999999432)"><svg viewBox="0 0 395.52 247.2" height="247.2" width="395.52"><g><svg></svg></g><g><svg viewBox="0 0 395.52 247.2" height="247.2" width="395.52"><g transform="matrix(1,0,0,1,39.55199999999999,112.19762162162162)"><svg viewBox="0 0 316.416 22.804756756756756" height="22.804756756756756" width="316.416"><g><svg viewBox="0 0 316.416 22.804756756756756" height="22.804756756756756" width="316.416"><g><svg viewBox="0 0 316.416 22.804756756756756" height="22.804756756756756" width="316.416"><g><svg viewBox="0 0 316.416 22.804756756756756" height="22.804756756756756" width="316.416"><g><svg viewBox="0 0 316.416 22.804756756756756" height="22.804756756756756" width="316.416"><g><svg viewBox="0 0 316.416 22.804756756756756" height="22.804756756756756" width="316.416"><g transform="matrix(1,0,0,1,0,0)"><svg width="316.416" viewBox="0 -50 693.719970703125 43.75" height="22.804756756756756" data-palette-color="#4790fc"><path d="M37.5-6.25L6.25-6.25 6.25-12.5 0-12.5 0-18.75 12.5-18.75 12.5-12.5 31.25-12.5 31.25-25 6.25-25 6.25-31.25 0-31.25 0-43.75 6.25-43.75 6.25-50 37.5-50 37.5-43.75 43.75-43.75 43.75-37.5 31.25-37.5 31.25-43.75 12.5-43.75 12.5-31.25 37.5-31.25 37.5-25 43.75-25 43.75-12.5 37.5-12.5 37.5-6.25ZM87.5-6.25L56.25-6.25 56.25-12.5 50-12.5 50-43.75 56.25-43.75 56.25-50 87.5-50 87.5-43.75 93.75-43.75 93.75-12.5 87.5-12.5 87.5-6.25ZM62.5-43.75L62.5-12.5 81.25-12.5 81.25-43.75 62.5-43.75ZM112.5-6.25L100-6.25 100-50 137.5-50 137.5-43.75 143.75-43.75 143.75-25 137.5-25 137.5-18.75 112.5-18.75 112.5-6.25ZM112.5-43.75L112.5-25 131.25-25 131.25-43.75 112.5-43.75ZM162.49-6.25L149.99-6.25 149.99-50 187.49-50 187.49-43.75 193.74-43.75 193.74-25 181.24-25 181.24-18.75 187.49-18.75 187.49-12.5 193.74-12.5 193.74-6.25 174.99-6.25 174.99-12.5 168.74-12.5 168.74-18.75 162.49-18.75 162.49-6.25ZM162.49-43.75L162.49-25 174.99-25 174.99-31.25 181.24-31.25 181.24-43.75 162.49-43.75ZM212.49-6.25L199.99-6.25 199.99-37.5 206.24-37.5 206.24-43.75 212.49-43.75 212.49-50 231.24-50 231.24-43.75 237.49-43.75 237.49-37.5 243.74-37.5 243.74-6.25 231.24-6.25 231.24-18.75 212.49-18.75 212.49-6.25ZM212.49-37.5L212.49-25 231.24-25 231.24-37.5 224.99-37.5 224.99-43.75 218.74-43.75 218.74-37.5 212.49-37.5ZM262.49-6.25L249.99-6.25 249.99-50 262.49-50 262.49-43.75 268.74-43.75 268.74-37.5 274.99-37.5 274.99-31.25 281.24-31.25 281.24-50 293.74-50 293.74-6.25 281.24-6.25 281.24-18.75 274.99-18.75 274.99-25 268.74-25 268.74-31.25 262.49-31.25 262.49-6.25ZM337.49-6.25L306.24-6.25 306.24-12.5 299.99-12.5 299.99-43.75 306.24-43.75 306.24-50 337.49-50 337.49-43.75 343.74-43.75 343.74-12.5 337.49-12.5 337.49-6.25ZM312.49-43.75L312.49-12.5 331.24-12.5 331.24-43.75 312.49-43.75ZM387.48-6.25L356.23-6.25 356.23-12.5 349.98-12.5 349.98-18.75 362.48-18.75 362.48-12.5 381.23-12.5 381.23-25 356.23-25 356.23-31.25 349.98-31.25 349.98-43.75 356.23-43.75 356.23-50 387.48-50 387.48-43.75 393.73-43.75 393.73-37.5 381.23-37.5 381.23-43.75 362.48-43.75 362.48-31.25 387.48-31.25 387.48-25 393.73-25 393.73-12.5 387.48-12.5 387.48-6.25ZM462.48-6.25L449.98-6.25 449.98-50 487.48-50 487.48-43.75 493.73-43.75 493.73-25 487.48-25 487.48-18.75 462.48-18.75 462.48-6.25ZM462.48-43.75L462.48-25 481.23-25 481.23-43.75 462.48-43.75ZM543.73-6.25L506.23-6.25 506.23-12.5 518.73-12.5 518.73-43.75 506.23-43.75 506.23-50 543.73-50 543.73-43.75 531.23-43.75 531.23-12.5 543.73-12.5 543.73-6.25ZM593.72-6.25L549.97-6.25 549.97-18.75 556.22-18.75 556.22-25 562.47-25 562.47-31.25 568.72-31.25 568.72-37.5 574.97-37.5 574.97-43.75 549.97-43.75 549.97-50 593.72-50 593.72-37.5 587.47-37.5 587.47-31.25 581.22-31.25 581.22-25 574.97-25 574.97-18.75 568.72-18.75 568.72-12.5 593.72-12.5 593.72-6.25ZM643.72-6.25L599.97-6.25 599.97-18.75 606.22-18.75 606.22-25 612.47-25 612.47-31.25 618.72-31.25 618.72-37.5 624.97-37.5 624.97-43.75 599.97-43.75 599.97-50 643.72-50 643.72-37.5 637.47-37.5 637.47-31.25 631.22-31.25 631.22-25 624.97-25 624.97-18.75 618.72-18.75 618.72-12.5 643.72-12.5 643.72-6.25ZM662.47-6.25L649.97-6.25 649.97-37.5 656.22-37.5 656.22-43.75 662.47-43.75 662.47-50 681.22-50 681.22-43.75 687.47-43.75 687.47-37.5 693.72-37.5 693.72-6.25 681.22-6.25 681.22-18.75 662.47-18.75 662.47-6.25ZM662.47-37.5L662.47-25 681.22-25 681.22-37.5 674.97-37.5 674.97-43.75 668.72-43.75 668.72-37.5 662.47-37.5Z" opacity="1" transform="matrix(1,0,0,1,0,0)" fill="#4790fc" class="undefined-text-0" data-fill-palette-color="primary" id="text-0"></path></svg></g></svg></g></svg></g></svg></g></svg></g></svg></g></svg></g><g mask="url(#6ce7bab0-0b82-4a62-9be8-89ee6de49b60)"><g transform="matrix(3.2293326297009113, 0, 0, 3.2293326297009113, 67.92341917930227, 1)"><svg xmlns="http://www.w3.org/2000/svg" xmlns:xlink="http://www.w3.org/1999/xlink" version="1.1" x="0" y="0" viewBox="9.79378890991211 14.751001358032227 80.41078186035156 75.92900085449219" enable-background="new 0 0 100 100" xml:space="preserve" height="75.92900085449219" width="80.41078186035156" class="icon-none" data-fill-palette-color="accent" id="none"><g fill="#ed2326" data-fill-palette-color="accent"><path d="M49.997 90.68L49.997 90.68c-0.463 0-0.888-0.256-1.104-0.664L9.939 16.586c-0.205-0.388-0.192-0.854 0.033-1.23 0.227-0.376 0.633-0.605 1.071-0.605h77.912c0.438 0 0.845 0.229 1.071 0.605 0.226 0.376 0.238 0.843 0.033 1.23l-38.959 73.43C50.885 90.424 50.46 90.68 49.997 90.68zM13.122 17.25l36.875 69.513L86.878 17.25H13.122z" fill="#ed2326" data-fill-palette-color="accent"></path><path d="M37.567 43.123c-3.004 0-5.447-2.443-5.447-5.446 0-3.005 2.443-5.45 5.447-5.45 3.005 0 5.449 2.445 5.449 5.45C43.017 40.68 40.572 43.123 37.567 43.123zM37.567 34.727c-1.625 0-2.947 1.323-2.947 2.95 0 1.625 1.322 2.946 2.947 2.946 1.626 0 2.949-1.321 2.949-2.946C40.517 36.05 39.193 34.727 37.567 34.727z" fill="#ed2326" data-fill-palette-color="accent"></path><path d="M49.983 66.184c-5.959 0-10.807-4.849-10.807-10.809 0-5.959 4.848-10.808 10.807-10.808S60.79 49.416 60.79 55.375C60.79 61.335 55.942 66.184 49.983 66.184zM49.983 47.067c-4.58 0-8.307 3.727-8.307 8.308s3.727 8.309 8.307 8.309 8.307-3.728 8.307-8.309S54.563 47.067 49.983 47.067z" fill="#ed2326" data-fill-palette-color="accent"></path><path d="M71.058 27.928c-2.324 0-3.507-1.345-4.456-2.425-0.885-1.006-1.44-1.575-2.577-1.575-1.136 0-1.69 0.569-2.574 1.574-0.95 1.081-2.132 2.426-4.455 2.426-2.32 0-3.501-1.345-4.449-2.425-0.883-1.006-1.438-1.575-2.572-1.575-1.136 0-1.691 0.569-2.574 1.575-0.949 1.08-2.131 2.425-4.453 2.425s-3.502-1.345-4.451-2.426c-0.883-1.005-1.438-1.574-2.572-1.574s-1.689 0.569-2.572 1.574c-0.949 1.081-2.13 2.426-4.453 2.426-2.322 0-3.502-1.345-4.451-2.426-0.883-1.005-1.438-1.574-2.572-1.574-0.69 0-1.25-0.56-1.25-1.25s0.56-1.25 1.25-1.25c2.322 0 3.502 1.345 4.451 2.426 0.883 1.005 1.438 1.574 2.572 1.574 1.136 0 1.691-0.569 2.574-1.575 0.949-1.08 2.13-2.425 4.451-2.425 2.322 0 3.502 1.345 4.451 2.426 0.883 1.005 1.438 1.574 2.572 1.574 1.136 0 1.691-0.569 2.574-1.575 0.949-1.08 2.131-2.425 4.453-2.425s3.503 1.345 4.451 2.426c0.883 1.006 1.437 1.574 2.57 1.574 1.137 0 1.692-0.569 2.577-1.575 0.948-1.08 2.13-2.425 4.452-2.425 2.323 0 3.505 1.344 4.454 2.424 0.885 1.007 1.441 1.576 2.579 1.576 1.137 0 1.692-0.569 2.577-1.575 0.949-1.08 2.132-2.425 4.456-2.425 0.69 0 1.25 0.56 1.25 1.25s-0.56 1.25-1.25 1.25c-1.138 0-1.694 0.569-2.579 1.576C74.562 26.584 73.381 27.928 71.058 27.928z" fill="#ed2326" data-fill-palette-color="accent"></path><path d="M68.473 43.123c-0.175 0-0.353-0.036-0.521-0.114l-12.939-5.955c-0.302-0.139-0.535-0.392-0.65-0.702-0.114-0.312-0.102-0.655 0.037-0.957l1.832-3.977c0.288-0.626 1.032-0.902 1.658-0.612l12.938 5.957c0.627 0.289 0.901 1.031 0.613 1.658l-1.83 3.975C69.398 42.854 68.945 43.123 68.473 43.123zM57.192 35.306l10.669 4.909 0.784-1.704L57.979 33.6 57.192 35.306z" fill="#ed2326" data-fill-palette-color="accent"></path></g></svg></g></g></svg></g><defs><mask id="6ede901c-fddd-4957-86f6-008706396467"><rect width="640" height="400" fill="white"></rect><rect width="348.05760000000004" height="45.17659431182396" fill="black" x="145.97119999999998" y="177.411702844088" id="transform-me" transform="matrix(1,0,0,1,-122.24000000000001,-76.4)"></rect></mask><mask id="6bdd511d-d1d5-4f27-baa5-5cad07b2d287"><rect width="640" height="400" fill="white"></rect><rect width="348.05760000000004" height="45.17659431182396" fill="black" x="145.97119999999998" y="177.411702844088" id="transform-me" transform="matrix(1,0,0,1,-122.24000000000001,-76.4)"></rect></mask><mask id="6ee6db4f-75cd-4eae-ae50-4cfea9d9b9bb"><rect width="640" height="400" fill="white"></rect><rect width="348.05760000000004" height="45.17659431182396" fill="black" x="145.97119999999998" y="177.411702844088" id="transform-me" transform="matrix(1,0,0,1,-122.24000000000001,-76.4)"></rect></mask><mask id="338b711a-8258-4149-8fcf-12b1ebf6ab37"><rect width="640" height="400" fill="white"></rect><rect width="348.05760000000004" height="51.42312301826189" fill="black" x="145.97119999999998" y="174.28843849086905" id="transform-me" transform="matrix(1,0,0,1,-122.24000000000001,-76.4)"></rect></mask><mask id="6ce7bab0-0b82-4a62-9be8-89ee6de49b60"><rect width="640" height="400" fill="white"></rect><rect width="348.05760000000004" height="33.57206826897297" fill="black" x="145.97119999999998" y="183.2139658655135" id="transform-me" transform="matrix(1,0,0,1,-122.24000000000001,-76.4)"></rect></mask></defs></svg><rect width="395.52" height="247.2" fill="none" stroke="none" visibility="hidden"></rect></g></svg></g></svg>